<svg width="60" height="60" viewBox="0 0 60 60" fill="none" xmlns="http://www.w3.org/2000/svg">
<rect width="60" height="60" rx="30" fill="white"/>
<path d="M29.484 30.5V21.5H30.484V30.5H29.484ZM38.484 29.9997V30.0005C38.4854 31.4257 38.1282 32.8284 37.4451 34.0792C36.762 35.33 35.7751 36.3888 34.5753 37.1581C33.3755 37.9273 32.0014 38.3822 30.5797 38.4808C29.1579 38.5794 27.7341 38.3186 26.4396 37.7224C25.1451 37.1262 24.0215 36.2138 23.1722 35.0693C22.323 33.9247 21.7755 32.5848 21.5801 31.1731C21.3848 29.7613 21.5479 28.3231 22.0544 26.991C22.5062 25.8028 23.2183 24.7331 24.1361 23.8592L24.8333 24.5564C24.0502 25.2963 23.434 26.1978 23.0292 27.2008C22.5553 28.3749 22.3863 29.6499 22.5381 30.9069C22.6898 32.1639 23.1573 33.362 23.897 34.3896C24.6366 35.4172 25.6244 36.2408 26.7683 36.7836C27.9121 37.3265 29.1747 37.571 30.4385 37.4942C31.7023 37.4175 32.9261 37.0221 33.9959 36.3448C35.0656 35.6676 35.9465 34.7305 36.5564 33.621C37.1662 32.5116 37.4853 31.266 37.484 30.0001C37.4858 28.8871 37.2372 27.7879 36.7566 26.7839C36.356 25.9472 35.8029 25.1946 35.1272 24.5639L35.8337 23.8574C36.6139 24.5923 37.2479 25.4703 37.7004 26.4451C38.2172 27.5588 38.4847 28.7719 38.484 29.9997ZM25.564 24.58L25.2087 24.2247L25.187 24.9101C25.3085 24.7958 25.4342 24.6857 25.564 24.58Z" fill="#252729" stroke="#252729"/>
</svg>
