<svg width="60" height="60" viewBox="0 0 60 60" fill="none" xmlns="http://www.w3.org/2000/svg">
<rect width="60" height="60" rx="30" fill="white"/>
<path d="M29.9946 20.9001L29.9946 20.9002L30.0057 20.9001C30.8075 20.8951 31.6022 21.0494 32.3438 21.3539C33.0855 21.6584 33.7593 22.1071 34.3262 22.6741C34.8932 23.241 35.3419 23.9148 35.6464 24.6564C35.9505 25.3971 36.1047 26.1906 36.1002 26.9912C36.0863 27.9675 35.8421 28.9267 35.3873 29.7907C34.932 30.6558 34.2787 31.4009 33.4805 31.9653L33.1002 32.2343V32.7001V35.0001C33.1002 35.0267 33.0896 35.0521 33.0709 35.0708C33.0521 35.0896 33.0267 35.1001 33.0002 35.1001H27.0002C26.9736 35.1001 26.9482 35.0896 26.9294 35.0708C26.9107 35.0521 26.9002 35.0267 26.9002 35.0001V32.7001V32.2225L26.5046 31.9548C25.6968 31.408 25.0364 30.6703 24.5821 29.807C24.1278 28.9438 23.8935 27.9817 23.9001 27.0063L23.9002 27.0063L23.9001 26.9946C23.8952 26.1928 24.0494 25.3981 24.3539 24.6564C24.6584 23.9148 25.1072 23.241 25.6741 22.6741C26.241 22.1071 26.9148 21.6584 27.6565 21.3539C28.3981 21.0494 29.1929 20.8951 29.9946 20.9001ZM27.9294 39.0708C27.9107 39.0521 27.9002 39.0267 27.9002 39.0001V38.9001H32.1002V39.0001C32.1002 39.0267 32.0896 39.0521 32.0709 39.0708C32.0521 39.0896 32.0267 39.1001 32.0002 39.1001H28.0002C27.9736 39.1001 27.9482 39.0896 27.9294 39.0708Z" stroke="#0C0901" stroke-width="1.8"/>
</svg>
